# xmcd CD database file
#
# Track frame offsets:
#	150
#	35475
#	67275
#	101850
#	134775
#	174675
#
# Disc length: 2710 seconds
#
# Revision: 1
# Processed by: cddbd v1.5.2PL0 Copyright (c) Steve Scherf et al.
# Submitted via: CDex 1.51
#
DISCID=610a9406
DTITLE=作曲：史志有 - 花神(上)
DYEAR=1996
DGENRE=New Age
TTITLE0=正月-梅花~花神寿阳公主
TTITLE1=二月-杏花~花神杨贵妃
TTITLE2=三月-桃花~花神息夫人
TTITLE3=四月-牡丹~花神李白
TTITLE4=五月-石榴~花神钟馗
TTITLE5=六月-莲花~花神西施
EXTD=YEAR: 1996
EXTT0=
EXTT1=
EXTT2=
EXTT3=
EXTT4=
EXTT5=
PLAYORDER=
